PathFileType	4	(X/Y/Z)	jw_ngait_og1_rotated.trc
DataRate	CameraRate	NumFrames	NumMarkers	Units	OrigDataRate	OrigDataStartFrame	OrigNumFrames
120.000000	120.000000	6	56	mm	120.000000	82	327
Frame#	Times	Sternum			Neck			RShoulder			LShoulder			Xiphoid			Thoracic			RAsis			LAsis			RPsis			LPsis			Lumbar			RElbow			RWrist			RRadius			RUlna			LElbow			LWrist			LUlna			LRadius			LThighSuperior			LThighInferior			LThighLateral			LPatella			LShankSuperior			LShankInferior			LShankLateral			RThighSuperior			RThighInferior			RThighLateral			RPatella			RShankSuperior			RShankInferior			RShankLateral			RHeel			RToe			RMidfootMedial			RMidfootLateral			RHindfoot			RMidfootSuperior			RToeMedial			RToeLateral			LHeel			LToe			LMidfootMedial			LMidfootLateral			LHindfoot			LMidfootSuperior			LToeMedial			LToeLateral			LShoulderCenter			Oglobal			RShoulderCenter			Sacral			Xglobal			Yglobal			Zglobal			
		X1	Y1	Z1	X2	Y2	Z2	X3	Y3	Z3	X4	Y4	Z4	X5	Y5	Z5	X6	Y6	Z6	X7	Y7	Z7	X8	Y8	Z8	X9	Y9	Z9	X10	Y10	Z10	X11	Y11	Z11	X12	Y12	Z12	X13	Y13	Z13	X14	Y14	Z14	X15	Y15	Z15	X16	Y16	Z16	X17	Y17	Z17	X18	Y18	Z18	X19	Y19	Z19	X20	Y20	Z20	X21	Y21	Z21	X22	Y22	Z22	X23	Y23	Z23	X24	Y24	Z24	X25	Y25	Z25	X26	Y26	Z26	X27	Y27	Z27	X28	Y28	Z28	X29	Y29	Z29	X30	Y30	Z30	X31	Y31	Z31	X32	Y32	Z32	X33	Y33	Z33	X34	Y34	Z34	X35	Y35	Z35	X36	Y36	Z36	X37	Y37	Z37	X38	Y38	Z38	X39	Y39	Z39	X40	Y40	Z40	X41	Y41	Z41	X42	Y42	Z42	X43	Y43	Z43	X44	Y44	Z44	X45	Y45	Z45	X46	Y46	Z46	X47	Y47	Z47	X48	Y48	Z48	X49	Y49	Z49	X50	Y50	Z50	X51	Y51	Z51	X52	Y52	Z52	X53	Y53	Z53	X54	Y54	Z54	X55	Y55	Z55	X56	Y56	Z56	

82	1.6333	848.64	1321.3	-127.71	979.03	1440.6	-125.7	923.7	1386.8	-304.96	922.26	1380.3	57.839	855.58	1205.7	-123.08	1075	1251.6	-120.84	874.03	984.88	-263.92	887.35	967.42	5.9425	1091.6	957.85	-155.89	1090.9	961.09	-96.585	1089	1029.1	-129.23	1005.5	1061.2	-391.9	903.22	813.92	-385.62	883.85	823.36	-351.87	950.75	809.47	-379.16	898.2	1060.5	154.78	717.92	857.64	148.14	760.03	828.4	146.87	719.87	882.38	111.99	969.75	802.07	45.877	1033.2	566.22	-9.5588	939.29	662.47	-19.513	1011.3	488.26	-65.583	1080.5	424.83	-24.001	1141.3	173.74	-59.339	1074.3	293.04	-96.507	890.75	795.03	-296.85	763.39	590.56	-252.21	770.53	690.58	-224.15	710.75	545.43	-201.43	752.48	395.45	-278.14	630.08	193.43	-236.3	641.7	301.9	-192.81	640.65	41.203	-198.58	393.56	206.25	-228.73	454.37	157.9	-168.31	474.84	145.08	-280.64	530.15	83.727	-272.67	532.89	187.61	-216.1	420.51	176.53	-182.72	427.47	177.96	-270.39	1248.7	54.454	-97.058	952.63	53.423	-70.726	1038.2	26.076	-137.31	1054.5	32.24	-13.904	1154.4	22.698	-30.314	1077.9	106.65	-83.732	990.09	42.592	-112.55	1003.2	42.431	-25.065	950.24	1337.8	48.663	0	0	0	949.82	1344.7	-303.28	1091.3	959.47	-126.24	200	0	0	0	0	-200	0	200	0
83	1.6417	837.89	1318.9	-128.85	968.52	1438.1	-127.17	913.27	1383.8	-306.29	911.77	1378.3	56.615	844.86	1203.3	-124.1	1064.5	1249.2	-121.48	863.63	982.25	-264.22	876.2	965.37	5.9615	1081	955.38	-155.66	1080.1	958.64	-96.347	1078.3	1026.6	-128.91	994.22	1057.7	-392.23	893.82	810	-385.83	874.36	819.15	-352.1	941.53	805.9	-379.57	887.53	1058.4	153.8	706.7	855.63	147.53	749.36	826.84	146.32	708.65	880.04	111.09	960.05	800.41	46.242	1026.3	565.7	-8.5458	930.88	659.66	-18.777	1005.6	486.43	-65.23	1075.4	424.53	-23.89	1138.7	173.86	-58.932	1071.2	292.58	-96.913	880.75	792.98	-297.33	751.92	589.75	-251.87	759.51	689.44	-224.12	698.61	544.91	-201.62	739.92	394.37	-278.13	616.74	192.65	-236.32	628.82	301.07	-193.06	626.22	39.986	-198.41	380.75	207.29	-228.8	441.02	158.44	-168.27	461.2	145.03	-280.59	516.04	83.299	-272.39	519.63	187.41	-216.3	407.31	177.41	-182.67	414.14	178.36	-270.3	1248.4	55.217	-97.082	951.01	51.766	-69.96	1038.1	25.44	-137.69	1054.1	32.469	-14.28	1154.8	23.112	-30.385	1078.5	106.17	-84.613	989.95	42.437	-112.41	1003.2	42.006	-25.015	939.49	1335.7	47.492	0	0	0	939.12	1341.7	-304.47	1080.6	957.01	-126	200	0	0	0	0	-200	0	200	0
84	1.65	827.42	1316.7	-130.16	958.02	1435.8	-128.74	902.44	1380.8	-307.25	901.25	1376.1	55.37	834.28	1201	-125.18	1053.9	1246.9	-122.05	853.37	979.76	-264.67	865.16	963.27	5.8705	1070.3	953.05	-155.29	1069.1	956.36	-95.842	1067.7	1024.3	-128.64	982.96	1054.5	-392.82	884.51	806.14	-386.2	865.11	815.31	-352.39	932.22	802.4	-379.96	876.61	1056.1	152.7	695.79	853.19	146.68	738.59	824.98	145.5	697.82	877.87	110.29	950.21	798.67	46.468	1018.9	564.26	-8.8046	922.64	657.53	-18.041	1000.7	484.07	-65.34	1069.9	424.21	-23.434	1136	174.14	-58.68	1067.6	292.01	-96.629	869.52	791.1	-298.16	739.5	589.71	-251.13	748.25	688.65	-224.52	685.97	544.38	-201.97	727.49	393.39	-278.19	604.93	191.16	-236.28	616.39	299.72	-193.27	614.52	38.491	-198.19	369.27	205.84	-228.59	429.56	157.31	-168.05	449.36	143.33	-280.36	504.13	81.582	-272.04	508.04	185.97	-216.47	395.78	176.16	-182.36	402.3	176.58	-270.04	1248.1	56.232	-97.052	951.25	51.486	-70.102	1037.8	24.775	-136.34	1054.6	31.392	-13.016	1155	23.489	-30.273	1075.9	106.2	-83.017	989.71	41.977	-112.27	1003	41.621	-24.856	929.17	1333.8	46.065	0	0	0	928.51	1339.1	-305.91	1069.7	954.7	-125.57	200	0	0	0	0	-200	0	200	0
85	1.6583	816.88	1314.5	-131.59	947.33	1433.7	-130.13	892.17	1378.1	-308.74	890.38	1374.3	54.077	823.59	1198.9	-126.41	1043.2	1244.8	-122.61	842.8	977.44	-265.33	853.72	961.34	5.6406	1059.5	950.9	-154.79	1058.1	954.22	-95.527	1056.7	1022.1	-128.5	971.85	1051.5	-393.6	875.19	802.45	-386.57	855.86	811.47	-352.75	922.85	798.93	-380.45	865.54	1054	151.43	685.21	850.8	145.97	728.04	822.6	144.47	686.95	875.24	109.51	939.89	796.85	46.611	1010.5	563.27	-8.3416	913.94	655.71	-17.208	995.66	481.6	-66.171	1063.7	423.66	-22.965	1133.7	174.38	-58.591	1063.4	291.39	-96.091	858.08	789.41	-298.75	727	589.24	-251.37	734.91	689	-225.7	672.82	543.77	-202.86	715.19	392.29	-278.19	594.79	189.11	-236.22	604.86	297.92	-193.44	605.15	36.347	-197.74	359.07	202.27	-228.28	419.72	154.41	-167.47	439.16	139.96	-279.78	494.24	78.392	-271.46	497.91	183.16	-216.34	386.06	173.08	-181.89	392.18	173.05	-269.72	1247.8	57.189	-97.165	951.21	51.154	-70.084	1037.7	24.582	-136.63	1054.3	31.407	-13.289	1154.9	23.689	-30.149	1075.7	106.14	-83.374	989.6	41.77	-112.42	1002.8	41.002	-24.645	918.32	1332.2	44.758	0	0	0	918.24	1336.5	-307.23	1058.8	952.56	-125.16	200	0	0	0	0	-200	0	200	0
86	1.6667	806.25	1312.5	-133.14	936.7	1431.7	-131.69	881.58	1375.4	-309.91	879.51	1372.6	52.718	812.83	1197	-127.61	1032.4	1242.9	-123.19	832.16	975.2	-266.02	842.14	959.71	5.4696	1048.4	948.87	-154.38	1046.9	952.19	-95.201	1045.6	1020.1	-128.32	960.7	1048.8	-394.36	865.83	798.8	-386.95	846.44	807.79	-353.05	913.67	795.74	-381.12	854.61	1052	149.87	675.07	848.3	144.97	717.93	820	143.45	676.73	872.85	108.59	929.75	795.24	46.9	1001.9	562	-7.9598	904.53	653.94	-16.531	988.42	479.95	-66.68	1057.2	423.19	-22.488	1131.5	175.28	-57.967	1059.3	290.89	-95.933	846.89	787.86	-298.95	713.89	589.08	-251.62	721.92	688.09	-226.13	659.6	543.04	-204.28	703.25	391.12	-278.12	585.94	186.27	-235.86	594.14	295.28	-193.46	598	33.753	-196.93	350.21	196.94	-228.15	411.25	149.91	-167.41	431.02	135.24	-279.63	486.82	74.328	-270.92	489.2	179.32	-216.26	377.4	168.02	-181.79	383.63	168	-269.43	1247.4	58.374	-97.278	950.87	50.286	-69.933	1037.6	24.646	-137.15	1054	31.21	-13.773	1155	23.602	-30.091	1075.9	106.03	-83.679	989.64	41.656	-112.48	1002.6	41.013	-23.889	907.56	1330.7	43.234	0	0	0	907.75	1334.1	-308.76	1047.6	950.53	-124.79	200	0	0	0	0	-200	0	200	0
87	1.675	795.42	1310.8	-134.72	925.81	1429.9	-133.11	871.5	1373.1	-311.69	868.2	1371.1	51.304	801.84	1195.3	-128.95	1021.6	1241.1	-123.72	821.26	973.2	-266.81	830.54	958.05	5.275	1037.1	946.96	-153.94	1035.6	950.42	-94.918	1034.3	1018.3	-128.33	949.37	1046	-394.97	856.55	795.4	-387.45	837.49	804.23	-353.3	904.33	792.65	-381.65	843.95	1050.4	148.36	665.26	845.49	143.95	708.26	817.71	142.55	666.54	870.04	107.62	919.36	793.76	47.194	992.95	560.44	-8.1909	894.88	652.23	-16.076	980.08	478.37	-66.195	1050.7	422.59	-22.004	1129.2	175.96	-57.56	1055	290.6	-95.422	835.41	786.34	-298.97	700.51	588.66	-252.49	708.9	687.38	-227.47	646.1	541.69	-205.61	692.17	389.53	-278.08	578.26	182.84	-235.2	584.62	292.35	-193.41	592.84	31.213	-195.83	342.64	190.22	-228.19	404.22	144.49	-167.01	424.16	129.31	-279.15	480.95	69.197	-270.13	481.69	174.75	-216.15	370.34	162.04	-181.72	376.5	161.53	-269.53	1247.1	59.643	-97.455	950.63	49.798	-69.727	1037.4	24.64	-136.97	1054.1	30.537	-13.599	1154.8	23.943	-30.297	1074.5	106.17	-83.017	989.23	40.912	-112.12	1002.3	40.049	-24.124	896.14	1329.3	41.951	0	0	0	897.52	1331.9	-310.05	1036.3	948.69	-124.43	200	0	0	0	0	-200	0	200	0
